<svg id="flat" height="512" viewBox="0 0 512 512" width="512" xmlns="http://www.w3.org/2000/svg"><path d="m384 232-104 74.286v-178.286h104z" fill="#3cde8d"/><circle cx="384" cy="128" fill="#67eba0" r="104"/><path d="m336 472v-16h-16a7.99943 7.99943 0 0 0 -6.65625 3.5625l-8.33044 12.49561c-.17145-.29493-.33716-.59449-.49134-.90284l-25.3667-50.73291-14.31054 7.15528 25.3667 50.73291a31.8258 31.8258 0 0 0 28.62157 17.68945h17.167v-16h-17.05206l5.33331-8z" fill="#556c80"/><path d="m207.478 471.15527c-.15418.30835-.31989.60791-.49134.90284l-8.33044-12.49561a7.99943 7.99943 0 0 0 -6.65622-3.5625h-16v16h11.71875l5.33331 8h-17.05206v16h17.167a31.8258 31.8258 0 0 0 28.62158-17.68945l25.3667-50.73291-14.31054-7.15528z" fill="#556c80"/><path d="m288 344v80h16a31.99194 31.99194 0 0 0 25.6-12.8l8.87-11.82a7.99083 7.99083 0 0 1 12.05-.86l17.48 17.48 8 8 8-13.33008 11.29-18.81992a8.00237 8.00237 0 0 1 11.86-2.13l22.88 18.31 9.97 7.97 3.51-21.08008 2.56-15.32992a7.99528 7.99528 0 0 1 12.01-5.53992l29.92 17.94992a129.45191 129.45191 0 0 0 -71.55-115.78l-8.45-4.22a105.19272 105.19272 0 0 1 -49.6 59.2v.01a105.18348 105.18348 0 0 1 -50.29 12.79z" fill="#62798c"/><path d="m382.2 313.52 4.14 4.13989a147.10718 147.10718 0 0 1 39.67 72.25l4.02 18.12011 9.97 7.97 3.51-21.08008-1.88-8.48a163.249 163.249 0 0 0 -43.97-80.1l-4.94-4.94007a104.94866 104.94866 0 0 1 -10.52 12.12015z" fill="#556c80"/><path d="m343.43 337.8999 2.17 2.90015a112.74369 112.74369 0 0 1 22.4 67.19995v8l8 8 8-13.33008v-2.66992a128.76725 128.76725 0 0 0 -25.6-76.79 104.08546 104.08546 0 0 1 -14.97 6.6899z" fill="#556c80"/><path d="m224 344v80h-16a31.99194 31.99194 0 0 1 -25.6-12.8l-8.87-11.82a7.99083 7.99083 0 0 0 -12.05-.86l-17.48 17.48-8 8-8-13.33008-11.29-18.81992a8.00237 8.00237 0 0 0 -11.86-2.13l-22.88 18.31-9.97 7.97-3.51-21.08008-2.56-15.32992a7.99528 7.99528 0 0 0 -12.01-5.53992l-29.92 17.94992a129.45191 129.45191 0 0 1 71.55-115.78l8.45-4.22a105.19272 105.19272 0 0 0 49.6 59.2v.01a105.18348 105.18348 0 0 0 50.29 12.79z" fill="#62798c"/><path d="m304 296v-32h-8a24 24 0 0 0 -24 24v32h8a24 24 0 0 0 24-24z" fill="#556c80"/><path d="m208 296v-32h8a24 24 0 0 1 24 24v32h-8a24 24 0 0 1 -24-24z" fill="#556c80"/><path d="m312 392.00006v-.00006a101.66547 101.66547 0 0 0 -10.73312-45.46621l-10.53376-21.06754a38.83281 38.83281 0 0 0 -34.73312-21.46625 38.83281 38.83281 0 0 0 -34.7331 21.46623l-10.53376 21.06754a101.66547 101.66547 0 0 0 -10.73314 45.46623v.00008a55.99994 55.99994 0 0 0 55.99994 55.99992h.00012a55.99994 55.99994 0 0 0 55.99994-55.99994z" fill="#718799"/><circle cx="240" cy="336" fill="#556c80" r="8"/><circle cx="272" cy="336" fill="#556c80" r="8"/><path d="m266.34326 373.65674-10.34326-10.34326-10.34326 10.34326-11.31348-11.31348 16-16a8 8 0 0 1 11.31348 0l16 16z" fill="#556c80"/><path d="m129.8 313.52-4.14 4.13989a147.10718 147.10718 0 0 0 -39.67 72.25l-4.02 18.12011-9.97 7.97-3.51-21.08008 1.88-8.48a163.249 163.249 0 0 1 43.97-80.1l4.94-4.94007a104.94866 104.94866 0 0 0 10.52 12.12015z" fill="#556c80"/><path d="m168.57 337.8999-2.17 2.90015a112.74369 112.74369 0 0 0 -22.4 67.19995v8l-8 8-8-13.33008v-2.66992a128.76725 128.76725 0 0 1 25.6-76.79 104.08546 104.08546 0 0 0 14.97 6.6899z" fill="#556c80"/><g fill="#00a64f"><path d="m404 200a44.04978 44.04978 0 0 1 -44-44v-20h16v20a28 28 0 0 0 56 0v-36h16v36a44.04978 44.04978 0 0 1 -44 44z"/><path d="m360 48h16v32h-16z"/><path d="m337.287 57.408h16v31.76h-16z" transform="matrix(.707 -.707 .707 .707 49.31 265.621)"/><path d="m320 88h32v16h-32z"/><path d="m373.93 65.661h32.817v16h-32.817z" transform="matrix(.707 -.707 .707 .707 62.251 297.6)"/><path d="m384 88h32v16h-32z"/><path d="m328.913 141.519h35.134v16h-35.134z" transform="matrix(.707 -.707 .707 .707 -4.238 288.807)"/><path d="m320 120h32v16h-32z"/><path d="m382.339 133.93h16v32.817h-16z" transform="matrix(.707 -.707 .707 .707 8.022 320.044)"/><path d="m384 120h32v16h-32z"/></g><rect fill="#02c26a" height="80" rx="24" width="48" x="344" y="72"/></svg>