<?xml version="1.0" encoding="iso-8859-1"?>
<!-- Generator: Adobe Illustrator 19.0.0, SVG Export Plug-In . SVG Version: 6.00 Build 0)  -->
<svg version="1.1" id="Capa_1" xmlns="http://www.w3.org/2000/svg" xmlns:xlink="http://www.w3.org/1999/xlink" x="0px" y="0px"
	 viewBox="0 0 512 512" style="enable-background:new 0 0 512 512;" xml:space="preserve">
<path style="fill:#EFCDB1;" d="M416.986,189.42v113.792H296.282v67.264c0,5.554-2.254,10.58-5.894,14.22s-8.676,5.894-14.23,5.894
	c-11.109,0-20.114-9.006-20.114-20.114V189.42c0-13.193,11.872-23.886,26.526-23.886V89.707h107.89v75.826
	C405.114,165.534,416.986,176.228,416.986,189.42z"/>
<path style="fill:#D8AD8F;" d="M398.456,251.045h-3.177c-4.63,0-9.034,0.971-13.023,2.706c-6.186-6.874-15.144-11.212-25.094-11.212
	h-1.055c-6.092,0-11.807,1.622-16.748,4.46c-6.083-5.498-14.136-8.855-22.962-8.855c-7.511,0-14.461,2.437-20.114,6.552v58.514
	h120.704v-46.396C411.724,253.176,405.34,251.045,398.456,251.045z"/>
<rect x="282.57" y="89.71" style="fill:#C19476;" width="107.89" height="62.43"/>
<path style="fill:#2195F2;" d="M265.191,95.08h142.647V8.241c0-4.552-3.69-8.241-8.241-8.241H273.432
	c-4.552,0-8.241,3.69-8.241,8.241V95.08z"/>
<path style="fill:#EFCDB1;" d="M316.397,252.287L316.397,252.287c11.111,0,20.117,9.007,20.117,20.117v44.635
	c0,11.11-9.007,20.117-20.117,20.117l0,0c-11.11,0-20.117-9.007-20.117-20.117v-44.635
	C296.279,261.294,305.286,252.287,316.397,252.287z"/>
<path style="fill:#D8AD8F;" d="M302.566,317.04v-44.635c0-10.038,7.36-18.335,16.974-19.848c-1.027-0.162-2.071-0.27-3.143-0.27l0,0
	c-11.111,0-20.117,9.007-20.117,20.117v44.635c0,11.11,9.007,20.117,20.117,20.117l0,0c1.072,0,2.117-0.108,3.143-0.27
	C309.927,335.375,302.566,327.078,302.566,317.04z"/>
<path style="fill:#EFCDB1;" d="M356.103,256.688h1.057c10.819,0,19.589,8.77,19.589,19.589v41.292
	c0,10.819-8.77,19.589-19.589,19.589h-1.057c-10.819,0-19.589-8.77-19.589-19.589v-41.292
	C336.514,265.458,345.284,256.688,356.103,256.688z"/>
<path style="fill:#D8AD8F;" d="M343.118,317.568v-41.292c0-9.875,7.314-18.02,16.816-19.37c-0.908-0.129-1.829-0.219-2.773-0.219
	h-1.057c-10.819,0-19.589,8.77-19.589,19.589v41.292c0,10.819,8.77,19.589,19.589,19.589h1.057c0.944,0,1.865-0.09,2.773-0.219
	C350.432,335.588,343.118,327.443,343.118,317.568z"/>
<path style="fill:#EFCDB1;" d="M395.273,265.191h3.185c10.231,0,18.525,8.294,18.525,18.525v34.916
	c0,10.231-8.294,18.525-18.525,18.525h-3.185c-10.231,0-18.525-8.294-18.525-18.525v-34.916
	C376.749,273.485,385.043,265.191,395.273,265.191z"/>
<path style="fill:#D8AD8F;" d="M383.715,318.632v-34.916c0-9.593,7.291-17.482,16.634-18.429c-0.621-0.063-1.252-0.095-1.891-0.095
	h-3.185c-10.231,0-18.525,8.294-18.525,18.525v34.916c0,10.231,8.294,18.525,18.525,18.525h3.185c0.638,0,1.269-0.032,1.891-0.095
	C391.006,336.114,383.715,328.225,383.715,318.632z"/>
<path style="fill:#E5E4D3;" d="M273.432,127.428h126.164c4.552,0,8.241-3.69,8.241-8.241V87.385H265.191v31.802
	C265.191,123.739,268.881,127.428,273.432,127.428z"/>
<path style="fill:#D8AD8F;" d="M363.234,237.475v27.184c0,12.09-9.8,21.89-21.89,21.89h-66.177c-7.11,0-13.711-2.244-19.124-6.073
	V210.27c5.413-3.829,12.014-6.073,19.124-6.073h54.788C348.336,204.197,363.234,219.096,363.234,237.475z"/>
<path style="fill:#EFCDB1;" d="M349.088,265.176v-27.709c0-10.564-8.563-19.127-19.127-19.127h-54.789
	c-10.564,0-19.127,8.563-19.127,19.127v15.811c0,10.564,8.563,19.127,19.127,19.127h66.687
	C345.851,272.405,349.088,269.168,349.088,265.176z"/>
<path style="fill:#E21717;" d="M193.619,435.303h167.225l29.558,63.264c2.924,6.258-1.644,13.433-8.551,13.433H172.613
	c-6.907,0-11.474-7.175-8.551-13.433L193.619,435.303z"/>
<ellipse style="fill:#FB4239;" cx="277.23" cy="435.3" rx="83.61" ry="21.375"/>
<g>
	<path style="fill:#FEC007;" d="M224.378,398.316c-4.268,0-7.726-3.459-7.726-7.726v-67.141c0-4.268,3.459-7.726,7.726-7.726
		s7.726,3.459,7.726,7.726v67.141C232.104,394.857,228.645,398.316,224.378,398.316z"/>
	<path style="fill:#FEC007;" d="M193.619,406.59c-1.978,0-3.955-0.755-5.464-2.263l-47.476-47.477
		c-3.017-3.018-3.017-7.909,0-10.928c3.019-3.017,7.91-3.015,10.928,0l47.476,47.477c3.017,3.018,3.017,7.909,0,10.928
		C197.574,405.835,195.596,406.59,193.619,406.59z"/>
	<path style="fill:#FEC007;" d="M169.882,433.979H102.74c-4.268,0-7.726-3.459-7.726-7.726c0-4.268,3.459-7.726,7.726-7.726h67.142
		c4.268,0,7.726,3.459,7.726,7.726C177.608,430.52,174.149,433.979,169.882,433.979z"/>
</g>
<g>
</g>
<g>
</g>
<g>
</g>
<g>
</g>
<g>
</g>
<g>
</g>
<g>
</g>
<g>
</g>
<g>
</g>
<g>
</g>
<g>
</g>
<g>
</g>
<g>
</g>
<g>
</g>
<g>
</g>
</svg>
